<svg id="Layer_1" data-name="Layer 1" xmlns="http://www.w3.org/2000/svg" width="67" height="98" viewBox="0 0 67 98">
  <defs>
    <style>
      .cls-1 {
        fill: #05a696;
      }

      .cls-2 {
        fill: #fff;
      }

      .cls-3 {
        fill: #d99873;
      }
    </style>
  </defs>
  <g>
    <path class="cls-1" d="M53.94,39.42c0-.53.46-3.65,1.34-9.88.19-1.34.37-2.68.56-4,.25-1.7.28-1.85.28-2.06a22.47,22.47,0,0,0-44.94,0c0,.21,0,.36.27,2.06.19,1.33.37,2.67.56,4,.89,6.23,1.33,9.35,1.34,9.88C13.54,46.7,6,48.37,2.5,58.71A33.69,33.69,0,0,0,1,68.41C1,83.49,14.76,94.55,17.94,97l29.73,0c2.91-2,18.49-13.14,18.59-28.56a33.06,33.06,0,0,0-1.46-9.7C61.29,48.37,53.76,46.7,53.94,39.42Z"/>
    <path class="cls-2" d="M44.74,26.84A12.17,12.17,0,0,1,33.29,18.4a12.15,12.15,0,0,1-11.44,8.44,11.3,11.3,0,0,1-2.68-.32c.21,8.36,6.44,15.07,14.12,15.07s13.92-6.71,14.13-15.07A11.3,11.3,0,0,1,44.74,26.84Z"/>
    <path d="M39.08,31.61a5.49,5.49,0,0,1-4.27-2.13l.57-.42a4.64,4.64,0,0,0,7.41,0l.56.42A5.48,5.48,0,0,1,39.08,31.61Z"/>
    <path d="M26,31.61a5.48,5.48,0,0,1-4.27-2.13l.56-.42a4.64,4.64,0,0,0,7.41,0l.56.42A5.44,5.44,0,0,1,26,31.61Z"/>
    <path class="cls-3" d="M35.82,36.84a3.13,3.13,0,0,1-5.8,0,4,4,0,0,0,.84-.38c.59-.33.57-.41.75-.46s.65,0,1.31.56c.71-.61,1.14-.65,1.4-.56s.31.2.75.46S35.65,36.76,35.82,36.84Z"/>
  </g>
</svg>
