<svg id="Layer_1" data-name="Layer 1" xmlns="http://www.w3.org/2000/svg" width="249" height="84" viewBox="0 0 249 84">
  <defs>
    <style>
      .cls-1, .cls-2 {
        fill: #d99873;
      }

      .cls-2 {
        stroke: #d99873;
        stroke-miterlimit: 10;
        stroke-width: 0.25px;
      }
    </style>
  </defs>
  <g>
    <path class="cls-1" d="M83.42,10a5.65,5.65,0,0,1,2.22,2.25,6.67,6.67,0,0,1,.81,3.3,6.58,6.58,0,0,1-.81,3.29,5.81,5.81,0,0,1-2.22,2.26,6.25,6.25,0,0,1-3.16.81,5.8,5.8,0,0,1-3-.8,5.54,5.54,0,0,1-2.1-2.24v2.95H74V4h1.2V12.1a5.35,5.35,0,0,1,2.09-2.18,5.84,5.84,0,0,1,3-.78A6.25,6.25,0,0,1,83.42,10Zm-.64,10.16a4.86,4.86,0,0,0,1.81-1.87,5.58,5.58,0,0,0,.66-2.74,5.57,5.57,0,0,0-.66-2.73,4.79,4.79,0,0,0-1.81-1.87,5.07,5.07,0,0,0-2.6-.68,5,5,0,0,0-2.58.68,4.77,4.77,0,0,0-1.8,1.87,5.57,5.57,0,0,0-.66,2.73,5.58,5.58,0,0,0,.66,2.74,4.83,4.83,0,0,0,1.8,1.87,5,5,0,0,0,2.58.67A5.06,5.06,0,0,0,82.78,20.11Z"/>
    <path class="cls-1" d="M97.51,5.92a1,1,0,0,1,0-1.38.93.93,0,0,1,.7-.29,1,1,0,0,1,.69.27,1,1,0,0,1,0,1.38.91.91,0,0,1-.69.29A1,1,0,0,1,97.51,5.92Zm.1,3.32h1.2V21.77h-1.2Z"/>
    <path class="cls-1" d="M111.6,21.41a6.23,6.23,0,0,1-2.14-1.15l.56-1a6.38,6.38,0,0,0,2,1.08,7.64,7.64,0,0,0,2.53.43,4.92,4.92,0,0,0,2.79-.63,2,2,0,0,0,.9-1.72,1.61,1.61,0,0,0-.49-1.25,2.92,2.92,0,0,0-1.21-.67,18.58,18.58,0,0,0-2-.46,17,17,0,0,1-2.4-.58,3.68,3.68,0,0,1-1.56-1,2.74,2.74,0,0,1-.65-1.92,3,3,0,0,1,1.24-2.46,5.53,5.53,0,0,1,3.51-1,8.83,8.83,0,0,1,2.38.34,5.9,5.9,0,0,1,1.92.89l-.55,1a5.73,5.73,0,0,0-1.76-.84,7.18,7.18,0,0,0-2-.29,4.47,4.47,0,0,0-2.64.65,2,2,0,0,0-.89,1.7,1.72,1.72,0,0,0,.5,1.31,3.34,3.34,0,0,0,1.24.7c.49.15,1.17.31,2,.49a16.77,16.77,0,0,1,2.37.56,3.68,3.68,0,0,1,1.52,1,2.65,2.65,0,0,1,.62,1.85,3,3,0,0,1-1.29,2.5,6.19,6.19,0,0,1-3.65.93A9.14,9.14,0,0,1,111.6,21.41Z"/>
    <path class="cls-1" d="M136.44,21a3.17,3.17,0,0,1-1.14.66,4.55,4.55,0,0,1-1.43.22,3.11,3.11,0,0,1-3.41-3.4V10.27h-2.3v-1h2.3V6.5h1.2V9.24h4v1h-4v8.07a2.68,2.68,0,0,0,.59,1.86,2.26,2.26,0,0,0,1.74.63,2.82,2.82,0,0,0,1.95-.69Z"/>
    <path class="cls-1" d="M150.17,9.88a5.64,5.64,0,0,1,3-.74v1.18l-.28,0a4.18,4.18,0,0,0-3.27,1.3,5.29,5.29,0,0,0-1.17,3.64v6.53h-1.21V9.24h1.16V12A4.23,4.23,0,0,1,150.17,9.88Z"/>
    <path class="cls-1" d="M165.47,21.05a6,6,0,0,1-2.25-2.27,6.62,6.62,0,0,1-.81-3.28,6.61,6.61,0,0,1,.81-3.27A5.91,5.91,0,0,1,165.47,10a6.67,6.67,0,0,1,6.41,0,5.82,5.82,0,0,1,2.24,2.27,6.61,6.61,0,0,1,.82,3.27,6.62,6.62,0,0,1-.82,3.28,5.89,5.89,0,0,1-2.24,2.27,6.75,6.75,0,0,1-6.41,0Zm5.78-.94a4.83,4.83,0,0,0,1.8-1.87,5.58,5.58,0,0,0,.66-2.74,5.57,5.57,0,0,0-.66-2.73,4.77,4.77,0,0,0-1.8-1.87,5.23,5.23,0,0,0-5.16,0,4.77,4.77,0,0,0-1.8,1.87,5.57,5.57,0,0,0-.66,2.73,5.58,5.58,0,0,0,.66,2.74,4.83,4.83,0,0,0,1.8,1.87,5.3,5.3,0,0,0,5.16,0Z"/>
  </g>
  <line class="cls-2" x1="58" y1="29" x2="191" y2="29"/>
  <g>
    <path class="cls-1" d="M28.23,63.92a15.28,15.28,0,0,1,1.31,6.61q0,5.73-2.93,8.87t-8.49,3.15H2.93V39H17.35q5.4,0,8.16,3.11a12,12,0,0,1,2.76,8.29,15,15,0,0,1-.95,5.48,9.19,9.19,0,0,1-2.79,3.92A9.54,9.54,0,0,1,28.23,63.92ZM11.88,49.23V55.7h4.24q3,0,3-3.23t-3-3.24Zm8.48,19.61q0-3.42-3-3.42H11.88v6.85h5.47Q20.36,72.27,20.36,68.84Z"/>
    <path class="cls-1" d="M52,75H41.7l-1.82,7.6H30.62L42.43,39h9l11.8,43.6H53.77ZM49.45,64.36l-2.63-11-2.62,11Z"/>
    <path class="cls-1" d="M91.76,63.92a15.13,15.13,0,0,1,1.31,6.61c0,3.82-1,6.78-2.93,8.87s-4.78,3.15-8.48,3.15H66.46V39H80.88q5.41,0,8.16,3.11a12,12,0,0,1,2.76,8.29,15,15,0,0,1-.94,5.48,9.21,9.21,0,0,1-2.8,3.92A9.54,9.54,0,0,1,91.76,63.92ZM75.41,49.23V55.7h4.24q3,0,3-3.23t-3-3.24Zm8.48,19.61q0-3.42-3-3.42H75.41v6.85h5.47Q83.9,72.27,83.89,68.84Z"/>
    <path class="cls-1" d="M99.33,78.12q-3.47-5.41-3.47-15.19V39H105V62.49c0,3.2.35,5.52,1.06,7a3.25,3.25,0,0,0,6.14,0c.7-1.46,1.06-3.78,1.06-7V39h9v24q0,9.78-3.48,15.19a11.35,11.35,0,0,1-19.36,0Z"/>
    <path class="cls-1" d="M130.67,82.33a14.54,14.54,0,0,1-5.22-3.27l2.93-10.71a15.72,15.72,0,0,0,4.32,2.89,11,11,0,0,0,4.59,1.09,4.65,4.65,0,0,0,2.7-.59A2.05,2.05,0,0,0,140.8,70a2.28,2.28,0,0,0-1.06-2.06,16.48,16.48,0,0,0-3.49-1.49A28.85,28.85,0,0,1,131,64.14a10.2,10.2,0,0,1-3.63-4,15.47,15.47,0,0,1-1.54-7.51,19,19,0,0,1,1.43-7.47,11.85,11.85,0,0,1,4.26-5.3A12,12,0,0,1,138.45,38a16,16,0,0,1,5.45,1,13.9,13.9,0,0,1,4.73,2.83L145.89,52.4q-4-3.24-7.52-3.24c-2.34,0-3.51.92-3.51,2.74a2.18,2.18,0,0,0,1,2,16.17,16.17,0,0,0,3.43,1.4,25.18,25.18,0,0,1,5.21,2.15,10.19,10.19,0,0,1,3.68,3.95,15,15,0,0,1,1.57,7.47,18.78,18.78,0,0,1-1.43,7.45,12,12,0,0,1-4.26,5.29,11.8,11.8,0,0,1-6.89,2A18.17,18.17,0,0,1,130.67,82.33Z"/>
    <path class="cls-1" d="M179.92,39v43.6h-9.11V66.48H162.4V82.55h-9.1V39h9.1V54.4h8.41V39Z"/>
    <path class="cls-1" d="M195.12,68.1l-2.05,3.67V82.55h-8.95V39h8.95V54.77L202,39h9.91l-10.8,19.18L212.4,82.55H201.87Z"/>
    <path class="cls-1" d="M235.5,75H225.24l-1.82,7.6h-9.25L226,39h8.95l11.8,43.6h-9.41ZM233,64.36l-2.62-11-2.63,11Z"/>
  </g>
</svg>
