<?xml version="1.0" standalone="no"?>
<!DOCTYPE svg PUBLIC "-//W3C//DTD SVG 20010904//EN"
 "http://www.w3.org/TR/2001/REC-SVG-20010904/DTD/svg10.dtd">
<svg version="1.0" xmlns="http://www.w3.org/2000/svg"
 width="291.000000pt" height="291.000000pt" viewBox="0 0 291.000000 291.000000"
 preserveAspectRatio="xMidYMid meet">
<metadata>
Created by potrace 1.11, written by Peter Selinger 2001-2013
</metadata>
<g transform="translate(0.000000,291.000000) scale(0.100000,-0.100000)"
fill="#000000" stroke="none">
<path d="M1415 2902 c-126 -10 -250 -55 -351 -127 -173 -124 -287 -347 -278
-545 2 -59 5 -82 19 -160 2 -14 7 -50 11 -80 3 -30 12 -95 19 -144 23 -157 9
-212 -87 -328 -29 -35 -58 -69 -66 -77 -72 -74 -151 -223 -177 -334 -65 -279
-12 -524 166 -777 49 -69 209 -238 286 -303 l33 -27 461 0 461 0 38 28 c55 38
228 215 282 287 195 261 250 516 174 820 -26 106 -87 210 -206 351 -100 118
-122 161 -124 239 -1 55 9 160 19 210 6 25 15 88 20 140 3 22 9 63 13 90 20
122 -14 283 -85 405 -125 213 -388 353 -628 332z m59 -583 c26 -58 100 -127
175 -162 55 -26 76 -31 143 -30 77 0 78 -1 78 -26 0 -37 -23 -118 -50 -174
-44 -93 -155 -192 -253 -226 -118 -40 -269 -8 -379 82 -80 66 -158 220 -158
313 l0 33 58 -3 c136 -7 269 68 333 189 13 25 26 45 30 45 3 0 13 -18 23 -41z"/>
</g>
</svg>
